<mxfile host="app.diagrams.net" modified="2023-08-18T07:32:59.114Z" agent="Mozilla/5.0 (Macintosh; Intel Mac OS X 10_15_7) AppleWebKit/537.36 (KHTML, like Gecko) Chrome/115.0.0.0 Safari/537.36" etag="FdoPrkGthCqtAUtLyhzh" version="21.6.8" type="github" pages="2">
  <diagram name="Page-1" id="6sAFGVkdzZxiu0WNN9iO">
    <mxGraphModel dx="1242" dy="699" grid="0" gridSize="10" guides="1" tooltips="1" connect="1" arrows="1" fold="1" page="0" pageScale="1" pageWidth="850" pageHeight="1100" math="0" shadow="0">
      <root>
        <mxCell id="0" />
        <mxCell id="1" parent="0" />
        <mxCell id="HTh_LatSpIV8VWwcdVyx-1" value="" style="rounded=1;whiteSpace=wrap;html=1;" vertex="1" parent="1">
          <mxGeometry x="288.5" y="517" width="278" height="123" as="geometry" />
        </mxCell>
        <mxCell id="HTh_LatSpIV8VWwcdVyx-2" value="" style="rounded=0;whiteSpace=wrap;html=1;" vertex="1" parent="1">
          <mxGeometry x="3" y="82" width="811" height="196" as="geometry" />
        </mxCell>
        <mxCell id="HTh_LatSpIV8VWwcdVyx-3" value="A" style="rounded=1;whiteSpace=wrap;html=1;" vertex="1" parent="1">
          <mxGeometry x="51" y="139" width="176" height="80" as="geometry" />
        </mxCell>
        <mxCell id="HTh_LatSpIV8VWwcdVyx-4" value="B" style="rounded=1;whiteSpace=wrap;html=1;" vertex="1" parent="1">
          <mxGeometry x="318" y="157" width="176" height="80" as="geometry" />
        </mxCell>
        <mxCell id="HTh_LatSpIV8VWwcdVyx-5" value="C" style="rounded=1;whiteSpace=wrap;html=1;" vertex="1" parent="1">
          <mxGeometry x="585" y="142" width="176" height="80" as="geometry" />
        </mxCell>
        <mxCell id="HTh_LatSpIV8VWwcdVyx-6" value="" style="endArrow=none;dashed=1;html=1;rounded=0;" edge="1" parent="1">
          <mxGeometry width="50" height="50" relative="1" as="geometry">
            <mxPoint x="139" y="406" as="sourcePoint" />
            <mxPoint x="734" y="403" as="targetPoint" />
            <Array as="points" />
          </mxGeometry>
        </mxCell>
        <mxCell id="HTh_LatSpIV8VWwcdVyx-7" value="&lt;p style=&quot;line-height: 120%;&quot;&gt;&lt;font style=&quot;font-size: 26px;&quot;&gt;MICROSERVICE&lt;/font&gt;&lt;/p&gt;" style="text;html=1;strokeColor=none;fillColor=none;align=center;verticalAlign=middle;whiteSpace=wrap;rounded=0;" vertex="1" parent="1">
          <mxGeometry x="349" y="93" width="157" height="49" as="geometry" />
        </mxCell>
      </root>
    </mxGraphModel>
  </diagram>
  <diagram id="g8jDGUJbFPpdUuct1F33" name="Page-2">
    <mxGraphModel dx="1642" dy="1099" grid="0" gridSize="10" guides="1" tooltips="1" connect="1" arrows="1" fold="1" page="0" pageScale="1" pageWidth="850" pageHeight="1100" math="0" shadow="0">
      <root>
        <mxCell id="0" />
        <mxCell id="1" parent="0" />
        <mxCell id="4g5sSJKiYLd7-hgHJPih-2" value="" style="rounded=0;whiteSpace=wrap;html=1;" vertex="1" parent="1">
          <mxGeometry x="-283" y="-16" width="968" height="449" as="geometry" />
        </mxCell>
      </root>
    </mxGraphModel>
  </diagram>
</mxfile>
